<svg width="1280" height="720" xmlns="http://www.w3.org/2000/svg" xmlns:xlink="http://www.w3.org/1999/xlink" overflow="hidden"><defs><linearGradient x1="324.115" y1="-187.128" x2="955.885" y2="907.128" gradientUnits="userSpaceOnUse" spreadMethod="reflect" id="fill0"><stop offset="0" stop-color="#96DCF8" stop-opacity="0.368627"/><stop offset="0.09" stop-color="#96DCF8" stop-opacity="0.368627"/><stop offset="0.43" stop-color="#D6D3C6" stop-opacity="0.701961"/><stop offset="0.74" stop-color="#D0B6E0" stop-opacity="0.611765"/><stop offset="1" stop-color="#D0B6E0" stop-opacity="0.611765"/></linearGradient></defs><g><rect x="0" y="0" width="1280" height="720" fill="url(#fill0)"/><path d="M285 177C285 153.252 304.252 134 328 134L328 134C351.748 134 371 153.252 371 177L371 216C371 239.748 351.748 259 328 259L328 259C304.252 259 285 239.748 285 216Z" fill="#BFBFBF" fill-rule="evenodd" fill-opacity="0.701961"/><path d="M292 179.5C292 159.894 307.894 144 327.5 144L327.5 144C347.106 144 363 159.894 363 179.5L363 179.5C363 199.106 347.106 215 327.5 215L327.5 215C307.894 215 292 199.106 292 179.5Z" fill="#FFFFFF" fill-rule="evenodd"/><path d="M407 177C407 153.252 426.252 134 450 134L450 134C473.748 134 493 153.252 493 177L493 216C493 239.748 473.748 259 450 259L450 259C426.252 259 407 239.748 407 216Z" fill="#BFBFBF" fill-rule="evenodd" fill-opacity="0.701961"/><path d="M415 179.5C415 159.894 430.894 144 450.5 144L450.5 144C470.106 144 486 159.894 486 179.5L486 179.5C486 199.106 470.106 215 450.5 215L450.5 215C430.894 215 415 199.106 415 179.5Z" fill="#FFFFFF" fill-rule="evenodd"/><path d="M1165 173.5C1165 150.028 1184.03 131 1207.5 131L1207.5 131C1230.97 131 1250 150.028 1250 173.5L1250 214.5C1250 237.972 1230.97 257 1207.5 257L1207.5 257C1184.03 257 1165 237.972 1165 214.5Z" fill="#BFBFBF" fill-rule="evenodd" fill-opacity="0.701961"/><path d="M1172 177.5C1172 157.894 1187.89 142 1207.5 142L1207.5 142C1227.11 142 1243 157.894 1243 177.5L1243 177.5C1243 197.106 1227.11 213 1207.5 213L1207.5 213C1187.89 213 1172 197.106 1172 177.5Z" fill="#FFFFFF" fill-rule="evenodd"/><path d="M787 177C787 153.252 806.252 134 830 134L830 134C853.748 134 873 153.252 873 177L873 216C873 239.748 853.748 259 830 259L830 259C806.252 259 787 239.748 787 216Z" fill="#BFBFBF" fill-rule="evenodd" fill-opacity="0.701961"/><path d="M795 179.5C795 159.894 810.894 144 830.5 144L830.5 144C850.106 144 866 159.894 866 179.5L866 179.5C866 199.106 850.106 215 830.5 215L830.5 215C810.894 215 795 199.106 795 179.5Z" fill="#FFFFFF" fill-rule="evenodd"/><path d="M665 178C665 154.252 684.252 135 708 135L708 135C731.748 135 751 154.252 751 178L751 218C751 241.748 731.748 261 708 261L708 261C684.252 261 665 241.748 665 218Z" fill="#BFBFBF" fill-rule="evenodd" fill-opacity="0.701961"/><path d="M673 180C673 160.67 688.67 145 708 145L708 145C727.33 145 743 160.67 743 180L743 181C743 200.33 727.33 216 708 216L708 216C688.67 216 673 200.33 673 181Z" fill="#FFFFFF" fill-rule="evenodd"/><path d="M537 178C537 154.252 556.252 135 580 135L580 135C603.748 135 623 154.252 623 178L623 218C623 241.748 603.748 261 580 261L580 261C556.252 261 537 241.748 537 218Z" fill="#BFBFBF" fill-rule="evenodd" fill-opacity="0.701961"/><path d="M544 180.5C544 160.894 559.894 145 579.5 145L579.5 145C599.106 145 615 160.894 615 180.5L615 180.5C615 200.106 599.106 216 579.5 216L579.5 216C559.894 216 544 200.106 544 180.5Z" fill="#FFFFFF" fill-rule="evenodd"/><path d="M916 177.5C916 154.028 935.028 135 958.5 135L958.5 135C981.972 135 1001 154.028 1001 177.5L1001 218.5C1001 241.972 981.972 261 958.5 261L958.5 261C935.028 261 916 241.972 916 218.5Z" fill="#BFBFBF" fill-rule="evenodd" fill-opacity="0.701961"/><path d="M923 180.5C923 160.894 938.894 145 958.5 145L958.5 145C978.106 145 994 160.894 994 180.5L994 180.5C994 200.106 978.106 216 958.5 216L958.5 216C938.894 216 923 200.106 923 180.5Z" fill="#FFFFFF" fill-rule="evenodd"/><path d="M1041 177C1041 153.252 1060.25 134 1084 134L1084 134C1107.75 134 1127 153.252 1127 177L1127 216C1127 239.748 1107.75 259 1084 259L1084 259C1060.25 259 1041 239.748 1041 216Z" fill="#BFBFBF" fill-rule="evenodd" fill-opacity="0.701961"/><path d="M1049 179.5C1049 159.894 1064.89 144 1084.5 144L1084.5 144C1104.11 144 1120 159.894 1120 179.5L1120 179.5C1120 199.106 1104.11 215 1084.5 215L1084.5 215C1064.89 215 1049 199.106 1049 179.5Z" fill="#FFFFFF" fill-rule="evenodd"/></g></svg>